<?xml version="1.0" standalone="no"?>
<!DOCTYPE svg PUBLIC "-//W3C//DTD SVG 20010904//EN"
 "http://www.w3.org/TR/2001/REC-SVG-20010904/DTD/svg10.dtd">
<svg version="1.0" xmlns="http://www.w3.org/2000/svg"
 width="1279.000000pt" height="853.000000pt" viewBox="0 0 1279.000000 853.000000"
 preserveAspectRatio="xMidYMid meet">

<g transform="translate(0.000000,853.000000) scale(0.100000,-0.100000)"
fill="#000000" stroke="none">
<path d="M0 4265 l0 -4265 6395 0 6395 0 0 4265 0 4265 -6395 0 -6395 0 0
-4265z m3770 2025 c0 -5 -2 -10 -4 -10 -3 0 -8 5 -11 10 -3 6 -1 10 4 10 6 0
11 -4 11 -10z m576 -146 c-8 -21 -29 -5 -31 23 0 10 -5 24 -9 31 -4 7 -5 20
-1 30 5 12 11 7 27 -25 12 -24 18 -49 14 -59z m5203 -113 c-53 -54 -116 -125
-139 -157 -40 -54 -199 -244 -204 -244 -10 0 4 43 18 59 10 11 15 25 10 32 -5
8 -3 10 6 4 10 -6 11 -4 5 11 -5 10 -10 46 -11 79 -1 33 -6 61 -11 62 -18 6
-193 -181 -193 -206 0 -6 -4 -11 -9 -11 -5 0 -11 -21 -14 -47 -8 -69 -19 -117
-27 -123 -14 -9 -16 -73 -2 -77 6 -3 12 2 12 11 0 9 5 16 10 16 24 0 7 -41
-33 -77 -71 -66 -160 -122 -361 -228 -84 -45 -113 -56 -125 -48 -9 6 -15 20
-13 33 2 14 0 20 -7 16 -6 -4 -11 1 -11 12 0 27 -62 105 -72 89 -11 -17 -10 0
1 21 10 20 -4 66 -19 57 -6 -4 -7 1 -3 11 4 11 2 15 -4 11 -6 -4 -13 3 -16 14
-3 12 -10 18 -16 14 -6 -3 -11 -1 -11 4 0 6 -5 10 -11 8 -6 -1 -20 15 -31 36
-11 20 -25 37 -30 37 -6 0 -8 7 -5 14 4 10 1 13 -8 10 -9 -4 -13 -16 -10 -37
l5 -32 -11 32 c-6 17 -20 34 -31 36 -16 5 -18 9 -9 26 14 25 14 31 0 31 -5 0
-7 -4 -4 -10 9 -15 -4 -12 -21 5 -9 8 -13 15 -10 15 10 0 15 1 48 11 28 8 100
20 403 69 33 5 123 16 200 25 177 18 226 34 268 88 89 114 256 238 480 356
122 64 125 53 16 -58z m-5161 56 c5 -24 -15 -21 -21 4 -3 13 -1 19 6 16 7 -2
13 -11 15 -20z m112 -89 c0 -7 -4 -19 -9 -27 -6 -9 -8 -5 -8 13 0 14 3 26 8
26 5 0 9 -6 9 -12z m-34 -90 c9 -29 -6 -42 -26 -23 -18 16 -18 16 -14 -7 2
-12 1 -16 -2 -8 -4 8 -11 23 -16 34 -7 13 -7 16 1 12 6 -4 11 -3 11 3 0 17 40
8 46 -11z m24 -180 c25 -39 34 -48 41 -37 7 10 8 6 3 -12 -5 -26 25 -110 74
-208 14 -28 14 -35 3 -39 -9 -3 -10 -7 -2 -11 6 -4 18 -36 26 -72 8 -35 21
-94 29 -130 8 -36 21 -81 29 -101 9 -20 13 -38 11 -41 -7 -7 26 -77 36 -77 6
0 10 -15 10 -32 -1 -54 11 -118 21 -112 5 3 6 -2 3 -10 -4 -11 0 -16 11 -16 9
0 13 -4 10 -10 -9 -14 -52 -12 -62 3 -28 44 -131 393 -134 456 -1 20 1 46 5
59 4 12 3 22 -2 22 -6 0 -12 20 -13 44 -2 24 -1 42 4 39 4 -2 7 3 7 11 0 9 -5
16 -10 16 -14 0 -48 81 -62 143 -6 31 -21 61 -39 80 -16 16 -29 36 -29 43 0 7
-3 19 -6 28 -12 32 5 15 36 -36z m40 10 c0 -5 -4 -8 -10 -8 -5 0 -10 10 -10
23 0 18 2 19 10 7 5 -8 10 -18 10 -22z m10 -227 c0 -21 -16 -2 -24 29 -7 24
-6 24 8 6 9 -11 16 -27 16 -35z m3416 22 c-4 -5 -12 -9 -17 -9 -5 -1 -13 -2
-19 -3 -13 -1 -2 -56 21 -108 23 -51 23 -53 4 -53 -21 0 -19 -18 5 -32 11 -7
20 -21 20 -30 0 -10 3 -18 8 -18 10 0 42 -58 42 -78 1 -15 2 -15 11 1 8 13 7
22 -2 33 -6 8 -9 17 -6 20 6 7 30 -34 32 -56 4 -44 17 -90 25 -90 6 0 10 -18
10 -40 0 -22 3 -40 6 -40 4 0 22 14 41 31 19 16 38 28 41 24 3 -3 1 -10 -5
-16 -12 -12 -5 -61 8 -54 4 3 13 -3 18 -14 16 -29 13 -39 -4 -17 -8 11 -17 17
-20 15 -3 -3 3 -14 13 -25 10 -11 17 -25 14 -33 -3 -10 0 -11 16 -2 56 30 22
1 -112 -93 -81 -58 -192 -146 -246 -197 -55 -51 -111 -99 -124 -108 -13 -9
-83 -62 -157 -117 -252 -190 -405 -281 -634 -377 -161 -67 -417 -182 -550
-247 -87 -42 -136 -64 -280 -126 -16 -7 -43 -16 -60 -20 -16 -4 -95 -31 -175
-59 -149 -53 -240 -75 -240 -56 0 6 -17 27 -39 48 -21 21 -42 48 -45 60 -5 14
-12 20 -22 16 -9 -3 -14 2 -14 17 0 11 -4 19 -8 16 -5 -3 -9 8 -9 23 0 18 -13
45 -36 73 -38 46 -64 104 -53 115 3 4 6 1 6 -5 0 -7 6 -12 14 -12 8 0 17 -11
20 -25 4 -16 13 -25 26 -25 11 0 20 -5 20 -10 0 -15 44 -30 51 -18 7 10 117
40 249 68 58 12 84 22 82 31 -2 7 -7 35 -13 63 -11 60 -13 62 -42 47 -20 -11
-106 -35 -167 -48 -25 -4 -27 0 -67 115 -46 134 -45 142 24 142 24 0 43 5 43
10 0 11 -40 133 -45 138 -2 2 -13 -2 -26 -8 -12 -7 -35 -16 -50 -20 l-29 -8
-39 126 c-22 69 -38 129 -35 133 5 9 115 43 180 56 l42 8 -29 60 c-21 44 -33
59 -46 57 -24 -5 -327 -93 -331 -97 -2 -2 3 -14 11 -27 22 -33 50 -136 41
-149 -4 -7 -3 -9 4 -5 11 7 36 -63 72 -201 5 -20 4 -33 -2 -33 -5 0 -6 -10 -3
-22 11 -36 23 -43 19 -11 -2 15 6 -1 19 -37 16 -47 20 -69 12 -79 -8 -12 -7
-13 4 -6 11 6 13 4 8 -9 -4 -9 -3 -15 2 -11 5 3 19 -25 32 -62 12 -38 30 -90
41 -118 l19 -50 -25 30 c-13 16 -22 33 -20 37 8 13 -44 60 -58 52 -7 -4 -5 2
5 13 27 31 18 59 -24 75 -15 6 -35 64 -32 95 0 7 -3 10 -8 7 -8 -5 -13 10 -10
30 1 5 -4 6 -12 3 -10 -4 -14 5 -15 31 -1 19 -7 39 -13 43 -6 4 -8 12 -4 18 4
7 2 17 -3 24 -6 7 -8 33 -7 60 2 26 -1 47 -6 47 -6 0 -8 4 -5 9 3 5 -2 15 -12
22 -15 13 -16 12 -3 -3 8 -11 9 -18 3 -18 -21 0 -26 69 -8 98 11 18 -12 51
-34 49 -11 -1 -20 -7 -20 -15 0 -7 -4 -10 -10 -7 -5 3 -8 49 -7 105 2 76 0
100 -10 100 -7 0 -13 7 -13 16 0 8 4 13 9 10 5 -4 7 3 4 15 -4 16 -8 17 -14 7
-7 -10 -9 -9 -9 4 0 9 6 21 14 25 12 7 12 10 0 21 -12 10 -14 10 -14 -2 0 -8
-3 -17 -7 -19 -12 -8 -14 55 -2 69 13 16 2 54 -16 54 -15 0 -28 53 -14 58 21
8 7 19 -21 17 -17 -1 -27 2 -23 6 13 12 351 57 703 94 80 8 204 22 275 30 72
8 220 15 330 15 172 0 219 4 330 25 152 29 166 30 140 12 -11 -9 -15 -19 -10
-27 5 -9 4 -11 -3 -6 -7 4 -12 2 -12 -3 0 -6 7 -11 15 -11 8 0 15 -7 15 -15 0
-8 0 -18 0 -22 1 -5 15 -23 32 -40 18 -18 29 -36 25 -40 -4 -3 -14 2 -22 13
-8 10 -15 14 -15 8 0 -5 6 -19 14 -30 8 -10 12 -29 9 -41 -3 -15 -1 -23 7 -23
7 0 10 7 7 15 -4 8 -1 17 5 21 8 5 9 -4 5 -30 -3 -20 -3 -34 2 -32 4 3 20 -30
36 -72 15 -42 32 -81 37 -86 4 -6 8 -17 8 -26 0 -9 9 -34 19 -56 11 -22 23
-54 27 -70 4 -16 10 -33 14 -39 5 -5 22 -50 39 -98 41 -117 46 -125 84 -132
24 -4 52 3 109 28 43 19 75 36 73 39 -3 3 -2 16 3 29 8 22 -13 90 -48 151 -22
38 -8 30 21 -12 17 -25 28 -36 23 -25 -4 11 -8 30 -8 43 -1 12 -6 22 -13 22
-13 0 -36 68 -27 82 3 4 2 8 -3 8 -4 0 -13 15 -19 33 -6 17 -15 41 -19 51 -7
15 -5 18 6 12 8 -4 4 1 -7 11 -25 21 -58 82 -50 91 3 3 -1 16 -9 29 -9 13 -12
23 -7 23 5 0 20 -21 34 -47 14 -27 69 -124 122 -218 53 -93 96 -175 96 -182 0
-7 5 -13 11 -13 9 0 69 32 88 47 2 1 -4 12 -14 22 -9 11 -41 64 -71 118 -39
69 -51 100 -43 108 8 7 16 3 27 -14 9 -13 42 -56 74 -96 32 -40 58 -77 58 -81
0 -5 4 -15 8 -22 7 -10 19 -7 55 14 45 25 63 42 31 30 -9 -3 -12 -2 -9 5 9 13
-25 50 -38 42 -6 -3 -7 -1 -3 5 4 7 -19 46 -52 89 -50 67 -58 83 -55 113 3 29
-9 57 -65 154 -86 150 -87 151 -212 90 -49 -24 -91 -44 -93 -44 -10 0 -2 30 7
30 6 0 3 5 -6 11 -9 5 -15 16 -12 24 6 16 -33 78 -45 71 -4 -3 -13 -1 -19 3
-8 5 20 20 75 41 48 18 129 49 178 68 220 84 384 141 435 151 94 19 178 26
166 14z m181 -35 c-3 -8 -6 -5 -6 6 -1 11 2 17 5 13 3 -3 4 -12 1 -19z m-3590
-40 c-3 -8 -6 -5 -6 6 -1 11 2 17 5 13 3 -3 4 -12 1 -19z m4493 -19 c0 -6 -4
-7 -10 -4 -5 3 -10 11 -10 16 0 6 5 7 10 4 6 -3 10 -11 10 -16z m-660 -163 c0
-2 -7 -7 -16 -10 -8 -3 -12 -2 -9 4 6 10 25 14 25 6z m-1470 -152 c0 -8 -4
-12 -10 -9 -5 3 -10 13 -10 21 0 8 5 12 10 9 6 -3 10 -13 10 -21z m410 11 c11
-13 10 -14 -4 -9 -9 3 -16 10 -16 15 0 13 6 11 20 -6z m89 -116 c23 -44 41
-82 40 -83 -17 -15 -53 -26 -59 -19 -4 4 -24 41 -46 80 -37 71 -38 73 -19 88
11 8 25 15 30 15 6 0 30 -36 54 -81z m-191 6 c-3 -3 -9 2 -12 12 -6 14 -5 15
5 6 7 -7 10 -15 7 -18z m-139 -110 c0 -16 -1 -17 -8 -5 -5 8 -12 26 -16 40 -7
24 -7 24 9 5 8 -11 15 -29 15 -40z m27 -43 c6 -42 12 -57 24 -54 6 1 9 -2 5
-8 -3 -5 -1 -10 5 -10 7 0 9 -7 6 -16 -3 -8 -2 -12 4 -9 5 3 12 -6 16 -20 3
-14 12 -25 20 -25 13 0 19 -13 15 -34 -1 -4 9 -27 22 -50 13 -22 22 -48 19
-56 -2 -8 -1 -12 3 -8 4 4 16 -7 26 -25 17 -31 17 -32 -3 -49 -11 -10 -24 -16
-28 -13 -4 3 -27 53 -50 112 -23 60 -57 144 -75 187 -18 44 -31 86 -28 93 7
17 16 9 19 -15z m347 3 c-7 -21 -13 -19 -13 6 0 11 4 18 10 14 5 -3 7 -12 3
-20z m-2602 -242 c1 -10 1 -21 0 -25 0 -5 6 -8 14 -8 13 0 22 -23 41 -105 3
-16 12 -34 19 -40 6 -5 15 -23 19 -38 3 -15 20 -57 36 -93 17 -36 28 -69 25
-74 -3 -5 3 -13 12 -19 11 -7 13 -11 5 -11 -10 0 -8 -9 6 -32 18 -29 54 -118
84 -203 6 -16 19 -50 30 -74 22 -49 18 -71 -12 -71 -11 0 -20 -5 -20 -12 0
-38 -49 75 -56 129 -2 18 -12 41 -23 52 -36 36 -201 487 -216 594 -7 43 -6 47
14 47 13 0 21 -7 22 -17z m369 -93 c0 -5 -2 -10 -4 -10 -3 0 -8 5 -11 10 -3 6
-1 10 4 10 6 0 11 -4 11 -10z m-730 -154 c0 -3 -4 -8 -10 -11 -5 -3 -10 -1
-10 4 0 6 5 11 10 11 6 0 10 -2 10 -4z m3055 -206 c3 -5 29 -10 57 -10 28 0
48 -3 44 -7 -4 -5 -34 -8 -66 -9 -51 -1 -58 1 -57 18 1 20 12 24 22 8z m423
-8 c2 -7 8 -12 14 -12 6 0 8 6 5 13 -7 18 63 23 74 5 5 -7 24 -12 46 -10 30 1
34 0 18 -7 -31 -15 -189 -13 -203 1 -9 9 -15 10 -20 2 -9 -14 -94 -13 -104 1
-5 7 -8 7 -8 -1 0 -6 -25 -11 -65 -10 -132 0 -49 22 95 26 35 1 66 2 67 4 9 8
77 -2 81 -12z m209 0 c1 -10 -4 -19 -12 -19 -10 0 -12 13 -6 35 4 10 17 -2 18
-16z m-678 -16 c-11 -9 -69 -14 -69 -6 0 6 17 10 37 10 20 0 34 -2 32 -4z
m-3144 -46 c-3 -5 -10 -10 -16 -10 -5 0 -9 5 -9 10 0 6 7 10 16 10 8 0 12 -4
9 -10z m55 -6 c0 -2 -7 -4 -15 -4 -8 0 -15 4 -15 10 0 5 7 7 15 4 8 -4 15 -8
15 -10z m115 -14 c-3 -5 -16 -10 -28 -10 -18 0 -19 -2 -7 -11 11 -8 4 -9 -27
-6 -24 3 -43 1 -43 -4 0 -5 -5 -9 -11 -9 -5 0 -7 5 -4 10 4 6 -5 10 -20 10
-14 0 -24 4 -21 9 3 5 31 9 62 10 31 0 59 3 62 6 10 9 43 5 37 -5z m45 0 c0
-5 -7 -7 -15 -4 -8 4 -15 8 -15 10 0 2 7 4 15 4 8 0 15 -4 15 -10z m-425 -10
c3 -6 -1 -7 -9 -4 -18 7 -21 14 -7 14 6 0 13 -4 16 -10z m185 -4 c0 -3 -4 -8
-10 -11 -5 -3 -10 -1 -10 4 0 6 5 11 10 11 6 0 10 -2 10 -4z m475 -6 c3 -5 1
-10 -4 -10 -6 0 -11 5 -11 10 0 6 2 10 4 10 3 0 8 -4 11 -10z m-900 -10 c3 -5
1 -10 -4 -10 -6 0 -11 5 -11 10 0 6 2 10 4 10 3 0 8 -4 11 -10z m80 0 c3 -5
-1 -10 -10 -10 -9 0 -13 5 -10 10 3 6 8 10 10 10 2 0 7 -4 10 -10z m90 0 c-3
-5 -23 -9 -43 -9 l-37 2 35 7 c52 11 52 11 45 0z m492 4 c-3 -3 -12 -4 -19 -1
-8 3 -5 6 6 6 11 1 17 -2 13 -5z m-482 -34 c4 -6 -5 -10 -20 -10 -15 0 -24 4
-20 10 3 6 12 10 20 10 8 0 17 -4 20 -10z m2872 -15 c-4 -8 -11 -15 -17 -15
-6 0 -6 7 2 20 14 22 24 19 15 -5z m-1550 -17 c-3 -8 -6 -5 -6 6 -1 11 2 17 5
13 3 -3 4 -12 1 -19z m-1467 -9 c0 -5 -4 -9 -10 -9 -5 0 -10 7 -10 16 0 8 5
12 10 9 6 -3 10 -10 10 -16z m2983 -45 c-10 -22 -22 -41 -26 -43 -5 -1 0 -12
10 -23 13 -15 14 -19 3 -16 -25 5 -30 35 -13 70 33 67 57 78 26 12z m-2866 20
c-3 -3 -12 -4 -19 -1 -8 3 -5 6 6 6 11 1 17 -2 13 -5z m63 -10 c0 -2 -7 -4
-15 -4 -8 0 -15 4 -15 10 0 5 7 7 15 4 8 -4 15 -8 15 -10z m1290 -25 c0 -6 -4
-7 -10 -4 -5 3 -10 11 -10 16 0 6 5 7 10 4 6 -3 10 -11 10 -16z m1427 -151
c-3 -8 -6 -5 -6 6 -1 11 2 17 5 13 3 -3 4 -12 1 -19z m-2282 2 c3 -5 1 -10 -4
-10 -6 0 -11 5 -11 10 0 6 2 10 4 10 3 0 8 -4 11 -10z m2250 -66 c-8 -16 -15
-23 -15 -16 0 13 22 53 27 48 2 -2 -3 -16 -12 -32z m-175 -14 c0 -5 -2 -10 -4
-10 -3 0 -8 5 -11 10 -3 6 -1 10 4 10 6 0 11 -4 11 -10z m553 -17 c-7 -2 -21
-2 -30 0 -10 3 -4 5 12 5 17 0 24 -2 18 -5z m-421 -35 c-9 -9 -15 -9 -24 0 -9
9 -7 12 12 12 19 0 21 -3 12 -12z m-1376 -130 c15 -29 32 -56 38 -60 7 -5 6
-8 -4 -8 -13 0 -70 95 -70 115 0 16 13 -1 36 -47z m-100 32 c7 0 13 -8 12 -17
0 -10 5 -31 11 -48 6 -16 13 -43 16 -58 3 -15 10 -25 15 -22 5 3 14 -13 20
-35 11 -41 6 -65 -11 -54 -5 3 -7 10 -4 15 3 5 -1 6 -9 3 -28 -11 -18 -34 14
-34 37 0 52 -25 52 -88 1 -26 4 -51 8 -57 7 -9 19 -50 26 -86 2 -9 9 -29 15
-45 44 -106 101 -288 97 -307 -1 -7 13 -43 31 -80 18 -38 31 -74 28 -80 -7
-19 9 -52 24 -52 8 0 14 -10 13 -22 0 -12 3 -20 8 -17 4 3 8 -4 8 -15 0 -11 5
-32 12 -46 10 -22 9 -28 -3 -37 -11 -8 -11 -9 3 -4 13 4 23 -4 34 -26 12 -22
13 -33 5 -36 -6 -2 -11 -11 -11 -20 0 -15 2 -15 10 -2 12 20 22 7 44 -55 10
-27 25 -66 34 -85 9 -19 17 -37 17 -40 1 -3 6 -16 12 -30 6 -14 14 -40 18 -59
8 -39 45 -104 45 -81 1 16 39 -58 40 -76 0 -5 5 -15 11 -21 7 -7 13 -28 15
-48 4 -42 12 -58 26 -49 16 10 27 -16 22 -51 -3 -24 -3 -26 5 -10 8 18 10 17
25 -17 9 -21 16 -42 16 -47 0 -5 7 -12 16 -15 9 -4 14 -13 10 -21 -3 -8 -2
-15 3 -15 4 0 15 -18 24 -41 9 -23 21 -38 27 -34 6 3 10 -3 10 -16 0 -12 7
-27 16 -33 8 -6 16 -19 17 -27 2 -9 10 -27 18 -40 22 -33 39 -86 31 -94 -4 -4
0 -12 9 -19 9 -6 16 -23 15 -36 -1 -14 8 -37 19 -51 12 -15 43 -82 69 -149 27
-67 70 -165 97 -218 27 -52 46 -98 41 -101 -11 -7 35 -195 48 -199 16 -6 11
-42 -6 -42 -8 0 -13 4 -10 8 3 5 -2 21 -9 36 -8 16 -13 32 -10 36 3 5 1 11 -5
15 -5 3 -10 16 -10 28 0 14 -3 18 -10 11 -6 -6 -6 -22 2 -44 33 -99 42 -122
46 -112 2 7 12 12 23 12 15 0 17 -5 13 -30 -5 -23 -3 -30 10 -30 9 0 16 -8 16
-19 0 -11 5 -23 10 -26 6 -3 10 -18 10 -33 l-1 -27 -24 30 c-13 16 -21 32 -17
35 15 11 13 32 -4 26 -11 -4 -18 1 -22 16 -5 20 -6 20 -12 4 -8 -25 -64 145
-64 197 0 20 -4 37 -8 37 -5 0 -8 13 -8 29 0 32 -15 49 -24 29 -3 -7 -4 -1 -2
15 2 15 0 27 -4 27 -5 0 -18 16 -30 37 -17 29 -18 38 -8 44 10 7 10 9 0 9 -8
0 -11 10 -7 29 3 20 0 31 -10 34 -11 5 -12 1 -5 -18 15 -38 3 -29 -20 15 -24
47 -26 63 -3 35 15 -19 15 -19 8 5 -3 14 -8 33 -9 43 -1 10 -7 22 -13 25 -5 4
-24 38 -42 75 -20 43 -36 65 -43 61 -6 -4 -8 -3 -4 4 8 13 -14 63 -24 57 -5
-3 -11 2 -14 11 -4 10 -2 13 6 8 6 -4 9 -3 6 2 -3 5 -11 28 -17 51 -9 34 -15
41 -31 38 -21 -4 -27 9 -10 20 6 4 8 11 4 16 -3 5 -9 7 -14 4 -13 -8 -31 21
-24 41 4 13 3 15 -3 7 -6 -8 -52 74 -141 250 -151 301 -234 477 -224 477 4 0
2 4 -4 8 -20 12 -165 347 -234 537 -17 50 -36 99 -40 110 -15 34 -86 266 -110
355 -27 102 -48 155 -74 193 -15 20 -17 30 -9 38 16 16 5 102 -19 157 -23 56
-23 56 13 48 17 -3 37 -6 45 -6z m2080 -58 c-15 -15 -15 -15 -4 10 7 15 15 23
17 17 2 -6 -4 -18 -13 -27z m614 -12 c0 -5 -10 -10 -22 -10 -19 0 -20 2 -8 10
19 13 30 13 30 0z m-1219 -23 c-10 -9 -11 -8 -5 6 3 10 9 15 12 12 3 -3 0 -11
-7 -18z m-1251 -27 c0 -5 -13 -16 -30 -25 -33 -17 -38 -11 -13 17 17 19 43 24
43 8z m2110 -176 c0 -2 -7 -4 -15 -4 -8 0 -15 4 -15 10 0 5 7 7 15 4 8 -4 15
-8 15 -10z m-1340 -4 c0 -5 -5 -10 -11 -10 -5 0 -7 5 -4 10 3 6 8 10 11 10 2
0 4 -4 4 -10z m105 0 c-3 -5 -10 -10 -16 -10 -5 0 -9 5 -9 10 0 6 7 10 16 10
8 0 12 -4 9 -10z m-45 -294 c0 -3 -4 -8 -10 -11 -5 -3 -10 -1 -10 4 0 6 5 11
10 11 6 0 10 -2 10 -4z m370 -186 l-8 -35 -1 31 c-1 17 2 34 6 37 11 12 12 3
3 -33z m-23 24 c-3 -3 -12 -4 -19 -1 -8 3 -5 6 6 6 11 1 17 -2 13 -5z m183 -4
c13 -8 13 -10 -2 -10 -9 0 -20 5 -23 10 -8 13 5 13 25 0z m3650 -1537 c0 -5
-4 -15 -10 -23 -11 -18 -25 -7 -17 15 6 15 27 21 27 8z m-66 -94 c-23 -26
-110 -69 -138 -69 -13 1 -2 8 25 19 56 22 109 53 109 63 0 4 5 8 12 8 6 0 3
-9 -8 -21z m-4189 -159 c14 -27 25 -53 25 -57 0 -10 -31 43 -48 80 -20 46 -4
30 23 -23z m219 -326 c3 -8 2 -12 -4 -9 -6 3 -10 10 -10 16 0 14 7 11 14 -7z
m45 -124 c0 -10 -3 -8 -9 5 -12 27 -12 43 0 25 5 -8 9 -22 9 -30z m204 -195
c0 -6 -7 -11 -16 -13 -12 -3 -15 1 -11 13 7 17 25 17 27 0z m-203 -85 c0 -5
-2 -10 -4 -10 -3 0 -8 5 -11 10 -3 6 -1 10 4 10 6 0 11 -4 11 -10z m60 -52 c0
-10 -3 -18 -6 -18 -11 0 -34 29 -34 44 0 14 3 14 20 4 11 -7 20 -21 20 -30z
m-35 -76 c9 -52 14 -96 12 -99 -3 -2 -12 37 -22 87 -9 51 -19 99 -22 108 -4
12 -3 14 4 7 6 -5 18 -52 28 -103z m28 31 c-5 -12 -2 -15 10 -10 9 3 17 2 17
-3 0 -6 -5 -10 -11 -10 -6 0 -7 -5 -2 -12 10 -16 11 -118 2 -118 -7 0 -29 111
-29 148 0 12 4 22 10 22 5 0 6 -8 3 -17z"/>
<path d="M4725 4920 c3 -5 11 -10 16 -10 6 0 7 5 4 10 -3 6 -11 10 -16 10 -6
0 -7 -4 -4 -10z"/>
<path d="M7582 5308 l-83 -51 19 -21 c21 -22 74 -121 194 -357 l74 -146 76 45
76 44 -10 31 c-5 18 -12 38 -14 46 -4 11 -7 11 -22 -1 -9 -8 -33 -24 -53 -36
l-37 -22 -36 77 c-34 71 -36 78 -20 90 9 7 21 14 25 15 5 2 -1 22 -12 46 -20
39 -23 42 -39 27 -9 -8 -21 -15 -26 -15 -9 0 -78 125 -79 143 0 5 23 20 50 35
28 15 52 28 54 29 6 3 -40 73 -47 72 -4 0 -44 -23 -90 -51z"/>
<path d="M6613 4958 c-47 -10 -50 -14 -29 -44 30 -43 236 -612 236 -652 0 -22
2 -23 43 -17 23 3 84 16 136 28 l93 21 -6 55 c-4 30 -9 57 -11 59 -2 3 -15 -2
-28 -11 -25 -16 -146 -51 -153 -44 -4 4 -65 166 -126 337 -17 47 -43 118 -59
158 -16 40 -29 84 -29 97 0 27 -3 28 -67 13z"/>
<path d="M6375 4944 c-11 -3 -54 -14 -97 -25 l-76 -21 18 -32 c10 -17 55 -157
100 -311 45 -154 88 -299 95 -322 8 -23 15 -58 17 -78 1 -20 5 -38 8 -40 3 -2
34 3 67 12 l61 15 -18 41 c-10 23 -35 97 -54 164 -30 101 -34 126 -24 142 6
10 17 17 24 14 18 -7 90 15 105 33 21 25 14 63 -41 219 -66 188 -87 209 -185
189z m96 -221 l37 -113 -35 -9 c-20 -6 -40 -8 -44 -5 -5 3 -22 46 -38 97 -16
51 -32 100 -36 109 -5 13 -1 20 16 27 52 22 60 13 100 -106z"/>
<path d="M6023 4883 c-81 -26 -81 -26 -67 -48 10 -15 17 -61 20 -132 l6 -108
-56 95 c-30 52 -56 105 -56 118 0 27 -4 27 -96 1 l-74 -22 33 -36 c29 -33 168
-255 208 -334 13 -24 17 -63 18 -157 1 -69 4 -156 7 -195 3 -41 1 -82 -5 -97
-6 -16 -8 -28 -4 -28 21 0 163 43 163 50 0 4 -6 13 -13 19 -9 7 -15 36 -16 78
-1 38 -4 88 -7 113 -8 57 0 49 64 -63 31 -55 48 -95 45 -107 -7 -25 1 -25 93
1 l74 22 -31 36 c-18 20 -74 108 -125 195 l-94 160 -2 233 c-2 128 -3 233 -3
232 0 0 -37 -12 -82 -26z"/>
<path d="M5390 4193 c0 -4 5 -15 10 -23 8 -13 10 -13 10 2 0 9 -4 20 -10 23
-5 3 -10 3 -10 -2z"/>
<path d="M5917 3908 c3 -13 7 -30 10 -38 4 -8 6 -18 5 -22 -1 -4 3 -20 9 -35
10 -27 10 -27 -11 -8 -20 18 -20 18 -9 -16 6 -19 20 -42 31 -51 16 -14 17 -21
8 -39 -10 -17 -14 -19 -21 -8 -5 8 -9 22 -9 31 0 9 -5 20 -11 24 -8 5 -10 -1
-5 -19 3 -14 2 -29 -4 -32 -11 -7 -10 -65 2 -65 12 0 19 18 8 25 -12 8 -13 25
-1 25 5 0 12 -11 15 -24 8 -31 42 -29 39 3 -2 11 2 21 7 21 6 0 10 -7 10 -15
0 -8 8 -15 17 -15 15 0 14 3 -3 23 -11 12 -19 31 -19 42 0 11 -8 26 -20 33
-15 10 -16 12 -2 8 16 -5 16 -3 2 24 -9 18 -11 31 -5 35 15 9 12 45 -4 45 -15
0 -26 21 -26 51 0 10 -4 19 -9 19 -5 0 -7 -10 -4 -22z"/>
<path d="M5981 3807 c-1 -10 6 -34 14 -54 8 -19 15 -44 15 -54 0 -11 4 -19 10
-19 5 0 7 7 4 15 -4 8 -1 15 4 15 6 0 14 -9 17 -21 4 -11 9 -18 13 -15 9 9
-20 56 -34 56 -7 0 -19 21 -27 48 -8 26 -15 39 -16 29z"/>
<path d="M5511 3745 c0 -18 28 -61 29 -44 0 8 -7 24 -15 35 -8 10 -14 15 -14
9z"/>
<path d="M6066 3717 c3 -10 9 -15 12 -12 3 3 0 11 -7 18 -10 9 -11 8 -5 -6z"/>
<path d="M5565 3700 c3 -5 8 -10 11 -10 2 0 4 5 4 10 0 6 -5 10 -11 10 -5 0
-7 -4 -4 -10z"/>
<path d="M6085 3690 c-3 -5 -1 -10 4 -10 6 0 11 5 11 10 0 6 -2 10 -4 10 -3 0
-8 -4 -11 -10z"/>
<path d="M5670 3570 c0 -7 -7 -10 -15 -6 -8 3 -15 1 -15 -4 0 -5 11 -9 25 -8
26 2 32 12 15 23 -5 3 -10 1 -10 -5z"/>
<path d="M5010 4071 c0 -5 5 -13 10 -16 6 -3 10 -2 10 4 0 5 -4 13 -10 16 -5
3 -10 2 -10 -4z"/>
<path d="M5272 3500 c0 -14 2 -19 5 -12 2 6 2 18 0 25 -3 6 -5 1 -5 -13z"/>
<path d="M5280 3430 c0 -5 5 -10 10 -10 6 0 10 5 10 10 0 6 -4 10 -10 10 -5 0
-10 -4 -10 -10z"/>
<path d="M5317 3389 c7 -7 15 -10 18 -7 3 3 -2 9 -12 12 -14 6 -15 5 -6 -5z"/>
<path d="M5290 3326 c0 -9 5 -16 10 -16 6 0 10 4 10 9 0 6 -4 13 -10 16 -5 3
-10 -1 -10 -9z"/>
<path d="M6000 1630 c0 -5 5 -10 11 -10 5 0 7 5 4 10 -3 6 -8 10 -11 10 -2 0
-4 -4 -4 -10z"/>
<path d="M6260 1080 c6 -11 13 -20 16 -20 2 0 0 9 -6 20 -6 11 -13 20 -16 20
-2 0 0 -9 6 -20z"/>
<path d="M6380 818 c0 -10 4 -18 9 -18 5 0 12 -10 14 -22 4 -21 4 -21 6 -2 0
11 -6 29 -14 40 -13 17 -14 17 -15 2z"/>
<path d="M6425 739 c-9 -14 -2 -20 14 -10 8 6 9 11 3 15 -6 3 -14 1 -17 -5z"/>
</g>
</svg>
