<svg id="visual" viewBox="0 0 900 600" width="900" height="600" xmlns="http://www.w3.org/2000/svg" xmlns:xlink="http://www.w3.org/1999/xlink" version="1.1"><g stroke-width="1" stroke-linejoin="bevel"><path d="M484 285L495 209L414 212Z" fill="#0047a7" stroke="#0047a7"></path><path d="M414 212L409 310L484 285Z" fill="#003a7e" stroke="#003a7e"></path><path d="M268 326L405 363L409 310Z" fill="#004192" stroke="#004192"></path><path d="M409 310L405 363L484 285Z" fill="#004192" stroke="#004192"></path><path d="M525 80L361 136L414 212Z" fill="#00101c" stroke="#00101c"></path><path d="M414 212L327 173L409 310Z" fill="#1b59e5" stroke="#1b59e5"></path><path d="M361 136L327 173L414 212Z" fill="#00336a" stroke="#00336a"></path><path d="M582 85L525 80L495 209Z" fill="#002241" stroke="#002241"></path><path d="M495 209L525 80L414 212Z" fill="#001a2e" stroke="#001a2e"></path><path d="M405 363L516 416L484 285Z" fill="#003a7e" stroke="#003a7e"></path><path d="M484 285L622 326L495 209Z" fill="#1b59e5" stroke="#1b59e5"></path><path d="M516 416L622 326L484 285Z" fill="#002241" stroke="#002241"></path><path d="M622 326L635 165L495 209Z" fill="#0553d0" stroke="#0553d0"></path><path d="M635 165L582 85L495 209Z" fill="#001a2e" stroke="#001a2e"></path><path d="M327 173L268 326L409 310Z" fill="#002b55" stroke="#002b55"></path><path d="M361 494L539 474L516 416Z" fill="#003a7e" stroke="#003a7e"></path><path d="M516 416L635 382L622 326Z" fill="#004192" stroke="#004192"></path><path d="M622 326L679 319L635 165Z" fill="#002241" stroke="#002241"></path><path d="M362 0L296 70L361 136Z" fill="#001a2e" stroke="#001a2e"></path><path d="M361 136L296 70L327 173Z" fill="#00336a" stroke="#00336a"></path><path d="M171 168L228 327L268 326Z" fill="#1b59e5" stroke="#1b59e5"></path><path d="M635 382L679 319L622 326Z" fill="#001a2e" stroke="#001a2e"></path><path d="M268 326L280 400L405 363Z" fill="#003a7e" stroke="#003a7e"></path><path d="M171 168L268 326L327 173Z" fill="#00101c" stroke="#00101c"></path><path d="M268 326L228 327L280 400Z" fill="#004192" stroke="#004192"></path><path d="M361 494L516 416L405 363Z" fill="#1b59e5" stroke="#1b59e5"></path><path d="M516 416L539 474L635 382Z" fill="#1b59e5" stroke="#1b59e5"></path><path d="M582 85L515 0L525 80Z" fill="#00336a" stroke="#00336a"></path><path d="M525 80L362 0L361 136Z" fill="#003a7e" stroke="#003a7e"></path><path d="M679 319L708 190L635 165Z" fill="#002241" stroke="#002241"></path><path d="M635 165L719 94L582 85Z" fill="#1b59e5" stroke="#1b59e5"></path><path d="M582 85L638 0L515 0Z" fill="#0047a7" stroke="#0047a7"></path><path d="M515 0L362 0L525 80Z" fill="#0553d0" stroke="#0553d0"></path><path d="M280 400L361 494L405 363Z" fill="#0553d0" stroke="#0553d0"></path><path d="M362 0L331 0L296 70Z" fill="#00336a" stroke="#00336a"></path><path d="M228 327L214 406L280 400Z" fill="#002b55" stroke="#002b55"></path><path d="M280 400L306 536L361 494Z" fill="#0047a7" stroke="#0047a7"></path><path d="M635 382L685 424L679 319Z" fill="#003a7e" stroke="#003a7e"></path><path d="M831 165L779 91L708 190Z" fill="#004192" stroke="#004192"></path><path d="M632 501L685 424L635 382Z" fill="#00101c" stroke="#00101c"></path><path d="M200 94L327 173L296 70Z" fill="#003a7e" stroke="#003a7e"></path><path d="M200 94L171 168L327 173Z" fill="#00101c" stroke="#00101c"></path><path d="M228 327L111 403L214 406Z" fill="#004192" stroke="#004192"></path><path d="M239 0L200 94L296 70Z" fill="#00101c" stroke="#00101c"></path><path d="M779 91L719 94L708 190Z" fill="#004dbc" stroke="#004dbc"></path><path d="M708 190L719 94L635 165Z" fill="#002241" stroke="#002241"></path><path d="M719 94L638 0L582 85Z" fill="#001a2e" stroke="#001a2e"></path><path d="M539 474L632 501L635 382Z" fill="#1b59e5" stroke="#1b59e5"></path><path d="M565 600L632 501L539 474Z" fill="#00101c" stroke="#00101c"></path><path d="M331 0L239 0L296 70Z" fill="#002241" stroke="#002241"></path><path d="M235 521L306 536L280 400Z" fill="#0047a7" stroke="#0047a7"></path><path d="M361 494L405 600L539 474Z" fill="#002241" stroke="#002241"></path><path d="M74 0L137 122L200 94Z" fill="#002b55" stroke="#002b55"></path><path d="M200 94L137 122L171 168Z" fill="#1b59e5" stroke="#1b59e5"></path><path d="M171 168L66 316L228 327Z" fill="#004192" stroke="#004192"></path><path d="M137 122L115 171L171 168Z" fill="#001a2e" stroke="#001a2e"></path><path d="M719 94L709 0L638 0Z" fill="#004192" stroke="#004192"></path><path d="M214 406L235 521L280 400Z" fill="#00336a" stroke="#00336a"></path><path d="M123 501L235 521L214 406Z" fill="#1b59e5" stroke="#1b59e5"></path><path d="M817 307L708 190L679 319Z" fill="#004192" stroke="#004192"></path><path d="M719 94L777 0L709 0Z" fill="#0047a7" stroke="#0047a7"></path><path d="M281 600L405 600L306 536Z" fill="#00336a" stroke="#00336a"></path><path d="M306 536L405 600L361 494Z" fill="#00336a" stroke="#00336a"></path><path d="M405 600L534 600L539 474Z" fill="#004192" stroke="#004192"></path><path d="M793 433L679 319L685 424Z" fill="#1b59e5" stroke="#1b59e5"></path><path d="M793 433L817 307L679 319Z" fill="#0553d0" stroke="#0553d0"></path><path d="M674 600L736 489L632 501Z" fill="#002241" stroke="#002241"></path><path d="M632 501L736 489L685 424Z" fill="#004dbc" stroke="#004dbc"></path><path d="M534 600L565 600L539 474Z" fill="#002b55" stroke="#002b55"></path><path d="M66 316L111 403L228 327Z" fill="#00336a" stroke="#00336a"></path><path d="M817 307L831 165L708 190Z" fill="#004dbc" stroke="#004dbc"></path><path d="M736 489L793 433L685 424Z" fill="#0047a7" stroke="#0047a7"></path><path d="M115 171L66 316L171 168Z" fill="#001a2e" stroke="#001a2e"></path><path d="M235 521L281 600L306 536Z" fill="#00101c" stroke="#00101c"></path><path d="M223 600L281 600L235 521Z" fill="#1b59e5" stroke="#1b59e5"></path><path d="M900 71L777 0L779 91Z" fill="#002b55" stroke="#002b55"></path><path d="M779 91L777 0L719 94Z" fill="#00101c" stroke="#00101c"></path><path d="M565 600L674 600L632 501Z" fill="#1b59e5" stroke="#1b59e5"></path><path d="M736 489L810 471L793 433Z" fill="#003a7e" stroke="#003a7e"></path><path d="M0 494L123 501L111 403Z" fill="#003a7e" stroke="#003a7e"></path><path d="M111 403L123 501L214 406Z" fill="#003a7e" stroke="#003a7e"></path><path d="M813 600L810 471L736 489Z" fill="#002b55" stroke="#002b55"></path><path d="M900 383L900 272L817 307Z" fill="#004192" stroke="#004192"></path><path d="M817 307L900 272L831 165Z" fill="#00101c" stroke="#00101c"></path><path d="M123 501L223 600L235 521Z" fill="#004192" stroke="#004192"></path><path d="M900 383L817 307L793 433Z" fill="#004dbc" stroke="#004dbc"></path><path d="M831 165L900 71L779 91Z" fill="#002241" stroke="#002241"></path><path d="M900 272L900 186L831 165Z" fill="#004192" stroke="#004192"></path><path d="M137 122L0 112L115 171Z" fill="#00101c" stroke="#00101c"></path><path d="M115 171L0 223L66 316Z" fill="#001a2e" stroke="#001a2e"></path><path d="M239 0L74 0L200 94Z" fill="#0553d0" stroke="#0553d0"></path><path d="M0 112L0 223L115 171Z" fill="#00101c" stroke="#00101c"></path><path d="M66 316L0 416L111 403Z" fill="#004192" stroke="#004192"></path><path d="M0 223L0 272L66 316Z" fill="#004dbc" stroke="#004dbc"></path><path d="M810 471L900 383L793 433Z" fill="#002241" stroke="#002241"></path><path d="M74 0L0 112L137 122Z" fill="#00336a" stroke="#00336a"></path><path d="M900 186L900 71L831 165Z" fill="#002241" stroke="#002241"></path><path d="M0 272L0 416L66 316Z" fill="#002241" stroke="#002241"></path><path d="M123 501L75 600L223 600Z" fill="#002241" stroke="#002241"></path><path d="M674 600L813 600L736 489Z" fill="#004dbc" stroke="#004dbc"></path><path d="M810 471L900 513L900 383Z" fill="#0553d0" stroke="#0553d0"></path><path d="M900 71L900 0L777 0Z" fill="#001a2e" stroke="#001a2e"></path><path d="M74 0L0 0L0 112Z" fill="#00336a" stroke="#00336a"></path><path d="M813 600L900 513L810 471Z" fill="#00336a" stroke="#00336a"></path><path d="M0 416L0 494L111 403Z" fill="#002b55" stroke="#002b55"></path><path d="M0 494L75 600L123 501Z" fill="#001a2e" stroke="#001a2e"></path><path d="M813 600L900 600L900 513Z" fill="#00336a" stroke="#00336a"></path><path d="M0 494L0 600L75 600Z" fill="#001a2e" stroke="#001a2e"></path></g></svg>